#!OML:ASF I:\Actors\actors\Patient Classification 2\Patient 1\Session 1\actor1.ASF
:FULLY-SPECIFIED
:DEGREES
263
root -1.01476 18.1701 5.67035 -1.56492 -4.85563 -2.89266
lowerback 12.0089 0.951507 4.52269
upperback 2.06056 2.03583 4.05505
thorax -4.56471 0.958142 1.37996
lowerneck -3.18091 -8.48062 -10.9249
upperneck 34.6553 -11.7492 2.87906
head 12.9922 -6.28756 1.56108
rclavicle 2.56432e-014 -1.59028e-015
rhumerus -48.2171 2.83924 -78.0104
rradius 101.219
rwrist -50.8047
rhand -8.45792 -50.9874
rfingers 7.12502
rthumb 17.4682 -80.2225
lclavicle 2.56432e-014 -1.59028e-015
lhumerus -45.4621 -25.866 94.3838
lradius 129.677
lwrist 21.0855
lhand 14.928 -13.6488
lfingers 7.12502
lthumb 39.7839 11.6421
rfemur 11.5452 5.21614 19.7255
rtibia -2.51268
rfoot -16.5858 -12.1033
rtoes 4.21046
lfemur 18.6819 -2.89887 -14.1963
ltibia -16.8908
lfoot -3.56952 21.4478
ltoes -12.162
264
root -0.993838 18.1746 5.64894 -1.44594 -5.14575 -2.89475
lowerback 12.3987 0.956885 5.15353
upperback 1.74083 2.17621 4.0588
thorax -5.09381 1.00419 1.00071
lowerneck -2.92589 -8.52228 -11.0004
upperneck 34.598 -11.7732 2.70939
head 12.9121 -6.33213 1.51777
rclavicle 1.35174e-014 5.08889e-014
rhumerus -47.87 2.30324 -78.4616
rradius 100.361
rwrist -51.7957
rhand -9.04742 -51.3503
rfingers 7.12502
rthumb 16.9008 -80.6349
lclavicle 1.35174e-014 5.08889e-014
lhumerus -45.6596 -26.5092 95.7623
lradius 127.978
lwrist 20.7271
lhand 12.9567 -14.3981
lfingers 7.12502
lthumb 37.925 11.4215
rfemur 10.9709 5.52751 19.6353
rtibia -1.96152
rfoot -16.7042 -12.0106
rtoes 4.45018
lfemur 18.5533 -2.6769 -14.2701
ltibia -16.9772
lfoot -3.49649 21.5695
ltoes -12.0401
265
root -0.990628 18.175 5.6329 -1.46632 -4.9794 -2.96624
lowerback 12.5369 0.802839 5.56557
upperback 1.62481 2.05415 4.17736
thorax -5.28593 0.932077 0.913072
lowerneck -2.92425 -8.55837 -11.1259
upperneck 34.536 -11.7766 2.60749
head 12.8897 -6.36044 1.49838
rclavicle -2.98177e-015 7.95139e-015
rhumerus -47.2847 1.92384 -78.9058
rradius 99.8908
rwrist -53.0369
rhand -9.2723 -51.4741
rfingers 7.12502
rthumb 16.6843 -80.7771
lclavicle -2.98177e-015 7.95139e-015
lhumerus -45.457 -27.2986 97.0203
lradius 126.318
lwrist 20.6946
lhand 10.4925 -14.7811
lfingers 7.12502
lthumb 35.5933 11.6343
rfemur 10.4917 5.36659 19.6775
rtibia -0.99825
rfoot -17.1041 -11.6356
rtoes 4.89688
lfemur 18.5074 -2.32592 -14.1121
ltibia -17.0684
lfoot -3.14417 21.1006
ltoes -12.5122
266
root -0.986908 18.177 5.61664 -1.52143 -4.7145 -2.92554
lowerback 12.5223 0.613877 5.81651
upperback 1.63688 1.84187 4.28163
thorax -5.26563 0.824293 0.918562
lowerneck -3.01159 -8.58537 -11.3415
upperneck 34.3352 -11.7912 2.67815
head 12.8461 -6.38247 1.55512
rclavicle -2.44505e-014 -3.02153e-014
rhumerus -46.5452 1.68545 -79.3503
rradius 99.7852
rwrist -54.3125
rhand -9.50942 -51.3659
rfingers 7.12502
rthumb 16.456 -80.688
lclavicle -2.44505e-014 -3.02153e-014
lhumerus -44.8284 -28.2117 98.0321
lradius 124.688
lwrist 20.947
lhand 8.15374 -15.0611
lfingers 7.12502
lthumb 33.3732 11.8597
rfemur 10.0338 5.11371 19.5912
rtibia 2.70347e-014
rfoot -17.5102 -11.2523
rtoes 5.27664
lfemur 18.4588 -2.11958 -14.1042
ltibia -17.1488
lfoot -2.80021 20.6785
ltoes -13.132
267
root -0.982515 18.1762 5.60684 -1.65564 -4.44998 -2.79051
lowerback 12.4781 0.423606 6.01615
upperback 1.68503 1.6113 4.31376
thorax -5.19115 0.709589 0.879734
lowerneck -3.09545 -8.6068 -11.4466
upperneck 34.0937 -11.8122 2.74907
head 12.7751 -6.39385 1.5944
rclavicle -1.27222e-014 -6.36111e-015
rhumerus -45.8535 1.51246 -79.8669
rradius 99.977
rwrist -55.2946
rhand -9.9819 -51.1409
rfingers 7.12502
rthumb 16.0011 -80.5001
lclavicle -1.27222e-014 -6.36111e-015
lhumerus -44.0552 -29.2661 98.8696
lradius 123.046
lwrist 21.3049
lhand 5.97839 -15.8269
lfingers 7.12502
lthumb 31.3027 11.5164
rfemur 10.1853 4.86441 19.4156
rtibia 1.59028e-015
rfoot -17.504 -11.2337
rtoes 5.17858
lfemur 18.5275 -1.98843 -14.2292
ltibia -17.2151
lfoot -2.56454 20.3147
ltoes -13.6686
